<?xml version="1.0" encoding="UTF-8" standalone="no"?>
<svg
   xmlns:dc="http://purl.org/dc/elements/1.1/"
   xmlns:cc="http://creativecommons.org/ns#"
   xmlns:rdf="http://www.w3.org/1999/02/22-rdf-syntax-ns#"
   xmlns:svg="http://www.w3.org/2000/svg"
   xmlns="http://www.w3.org/2000/svg"
   xmlns:sodipodi="http://sodipodi.sourceforge.net/DTD/sodipodi-0.dtd"
   xmlns:inkscape="http://www.inkscape.org/namespaces/inkscape"
   width="4096"
   height="2160"
   viewBox="0 0 1083.7333 571.50002"
   version="1.1"
   id="svg877"
   inkscape:version="1.0.2 (e86c870879, 2021-01-15)"
   sodipodi:docname="pop_one_dark.svg"
   inkscape:export-filename="/home/cmd/Documents/pop_one_dark.png"
   inkscape:export-xdpi="100"
   inkscape:export-ydpi="100">
  <defs
     id="defs871" />
  <sodipodi:namedview
     id="base"
     pagecolor="#ffffff"
     bordercolor="#666666"
     borderopacity="1.0"
     inkscape:pageopacity="0"
     inkscape:pageshadow="2"
     inkscape:zoom="0.25"
     inkscape:cx="-240.86709"
     inkscape:cy="1741.565"
     inkscape:document-units="mm"
     inkscape:current-layer="layer1"
     inkscape:document-rotation="0"
     showgrid="false"
     units="px"
     inkscape:window-width="2596"
     inkscape:window-height="1406"
     inkscape:window-x="0"
     inkscape:window-y="30"
     inkscape:window-maximized="0"
     inkscape:pagecheckerboard="true" />
  <metadata
     id="metadata874">
    <rdf:RDF>
      <cc:Work
         rdf:about="">
        <dc:format>image/svg+xml</dc:format>
        <dc:type
           rdf:resource="http://purl.org/dc/dcmitype/StillImage" />
        <dc:title></dc:title>
      </cc:Work>
    </rdf:RDF>
  </metadata>
  <g
     inkscape:label="Layer 1"
     inkscape:groupmode="layer"
     id="layer1">
    <rect
       style="fill:#1e222a;fill-opacity:1;stroke:none;stroke-width:1.6033;stroke-linecap:round;stroke-linejoin:bevel;paint-order:stroke markers fill"
       id="rect1526"
       width="1083.7333"
       height="571.5"
       x="2.8483073e-05"
       y="0" />
    <g
       id="g1486"
       transform="translate(92.853864,34.302824)">
      <path
         style="fill:#61afef;fill-opacity:1;stroke-width:0.261108"
         id="path2"
         d="m 554.40496,263.76274 c -0.49082,2.08499 -1.54994,3.93245 -3.3582,5.09371 -2.84154,1.82107 -6.30307,1.29322 -8.75713,-0.92373 -2.29907,-2.0586 -3.07404,-5.54238 -2.35074,-8.5511 0.74914,-3.14068 3.12571,-5.91187 6.17391,-6.78282 6.79388,-1.92663 9.6096,5.62156 8.29216,11.16394 z m -4.159,-21.43054 c -4.21066,-1.71549 -2.76405,-24.2809 1.08496,-51.67609 1.08495,-7.65376 2.94487,-11.26951 5.03729,-13.11697 2.99654,-2.61283 8.44715,-2.7184 12.14116,-2.16416 4.23648,0.63341 8.29214,2.63922 11.36618,5.67434 2.71238,2.69201 3.02239,5.43681 2.0924,8.99977 -1.5241,5.67434 -4.13313,11.11115 -6.63887,16.416 -0.59415,1.29322 -5.78641,11.34868 -6.48388,12.58912 -12.52866,22.53901 -15.03439,24.72957 -18.59924,23.27799 z" />
      <path
         style="fill:#979eab;fill-opacity:1;stroke-width:0.261108"
         id="path4"
         d="m 465.25785,232.17117 c 2.4799,10.82084 2.22157,22.69737 0.10333,31.24847 -1.98908,8.07604 -7.38802,15.30752 -15.96433,17.73562 -7.51719,2.13777 -16.27432,0.58062 -21.64743,-4.69783 -8.83463,-8.65667 -14.00108,-28.97873 -11.70201,-43.73202 1.85992,-11.85014 8.11133,-27.0257 21.82825,-27.68551 0.8783,-0.0528 1.7566,-0.0264 2.63489,0.0528 13.97525,1.29322 21.59577,13.3281 24.7473,27.07848 z m -25.26394,24.624 c 0.77496,0.13197 1.54993,0.13197 2.3249,-0.10556 2.60906,-0.76538 4.10733,-3.53657 4.8048,-6.22858 1.05912,-4.09081 0.90413,-8.49832 -0.46498,-12.50995 -0.69747,-2.0322 -1.73076,-4.01162 -3.30653,-5.48959 -5.55393,-5.19928 -11.10787,0.21114 -12.06366,6.36054 -0.74914,4.80339 0.33582,10.37217 3.28069,14.25183 1.36911,1.79468 3.33236,3.35182 5.42478,3.72131 z" />
      <path
         style="fill:#e06c75;fill-opacity:1;stroke-width:0.261108"
         id="path6"
         d="m 495.50742,255.10607 c -0.0258,19.97896 1.93742,35.26009 -6.66472,37.08116 -6.97471,1.45157 -6.74222,-4.8034 -7.2847,-10.05546 -2.06658,-20.34845 -3.95233,-54.15697 -4.75313,-74.61099 0.56831,-8.78863 6.3289,-14.17266 12.32198,-15.49227 9.24795,-2.03221 19.11587,-1.45158 27.30469,3.72131 16.19683,10.24021 17.48844,29.03151 7.67218,44.36543 -5.37311,8.36636 -21.62159,14.43658 -28.5963,13.90874 z m 2.06658,-44.78771 c -1.00746,0.15836 -2.66072,0.63342 -3.1257,1.63632 -1.11079,2.34892 -1.03329,17.26056 0.90413,23.51553 0.30998,1.0293 1.00745,2.00581 2.01491,2.3753 3.66818,1.3724 6.97471,-3.21986 8.47298,-5.99104 2.09241,-3.85328 2.76405,-8.39275 1.44661,-12.61552 -1.23995,-3.93245 -5.08896,-9.63318 -9.71293,-8.92059 z" />
      <path
         style="fill:#98c379;fill-opacity:1;stroke-width:0.261108"
         id="path8"
         d="m 402.87296,220.24186 c -6.07058,13.11697 -16.14516,23.54192 -30.09457,28.68841 4.004,10.68888 8.08549,21.24579 12.06366,31.90828 2.22157,5.75351 4.33982,12.06127 2.4024,17.73561 -2.01492,5.8063 -9.86792,7.41623 -15.57685,1.24044 -10.97871,-11.92931 -48.09966,-87.51682 -50.83788,-93.19116 -2.3249,-4.88257 -5.81225,-10.10824 -5.70892,-15.75619 0.18082,-8.49832 13.04529,-17.1022 19.21919,-21.50971 8.62798,-6.14941 18.59923,-10.34578 29.26794,-10.37217 8.31799,0 15.42186,2.32252 21.72493,6.43972 9.66126,6.33415 16.37765,16.44239 18.85755,27.87025 2.1699,10.05546 1.70492,20.34845 -1.31745,26.94652 m -28.28632,-14.3574 c -2.16991,-8.04965 -7.07804,-15.46588 -13.25194,-20.66516 -1.34328,-1.13487 -2.78989,-2.19056 -4.46898,-2.77119 -11.57285,-3.87967 -6.56139,15.88816 -4.67564,20.8763 2.60906,6.99395 6.56139,15.83537 11.85701,21.11382 1.16244,1.16126 2.53155,2.19056 4.10732,2.50727 2.4024,0.50145 4.62398,-1.21404 5.83809,-3.21986 1.00746,-1.66271 1.39494,-3.64213 1.62743,-5.56877 0.43915,-4.0908 0.0517,-8.26078 -1.03329,-12.27241 z" />
      <path
         style="fill:#56b6c2;fill-opacity:1;stroke-width:0.261108"
         id="path10"
         d="m 541.26548,320.70976 c -0.0517,11.58621 -6.97471,23.17243 -22.24157,23.17243 -15.26686,0 -22.37073,-11.40147 -22.37073,-23.04047 0,-14.51575 9.89375,-23.48913 22.68072,-23.48913 14.82771,0.13196 22.06074,11.37507 21.93158,23.35717 z M 519.3339,304.66325 c -9.58377,0 -14.95688,6.80921 -15.00854,16.0993 0,8.07603 4.41731,15.65062 14.82771,15.65062 10.4104,0 14.38856,-8.208 14.38856,-15.7298 0.12917,-7.81212 -3.9265,-15.83537 -14.20773,-16.02012 z m 28.33798,33.28067 c 0,1.7155 0.0517,-8.15521 0,-9.65957 h 7.02637 l 0.49081,6.04383 c 2.29907,1.34601 5.86392,2.34891 8.78297,2.34891 5.42478,0 11.08204,-1.39879 11.08204,-6.8092 -0.18081,-4.90897 -6.4839,-5.91188 -11.57284,-6.43972 -8.65382,-0.89734 -15.62853,-3.06151 -15.62853,-12.98501 0,-8.84141 9.79043,-13.24892 17.07513,-13.24892 5.86391,-0.13197 10.02292,0.81816 15.31851,5.14649 0,3.56296 -0.0517,5.67434 -0.0517,9.2373 h -6.79386 l -0.43913,-5.85909 c -2.73823,-1.346 -5.55395,-1.71549 -7.72385,-1.66271 -4.67564,0.0528 -9.66128,2.29613 -9.66128,6.30775 0,3.93246 3.22904,5.01454 8.96381,5.85909 9.35128,1.26683 18.36672,3.431 18.36672,13.61842 -0.0517,11.13755 -10.28124,14.06709 -19.06419,14.06709 -6.69057,0.0264 -10.87539,-1.24044 -16.171,-5.96466 z"
         inkscape:connector-curvature="0" />
      <path
         style="fill:#e5c07b;fill-opacity:1;stroke-width:0.261108"
         id="path12"
         d="m 487.17274,340.0817 c 0,2.03221 -1.6016,3.66853 -3.59068,3.66853 h -41.51243 c -1.98909,0 -3.59069,-1.63632 -3.59069,-3.66853 v -0.31671 c 0,-2.0322 1.6016,-3.66853 3.59069,-3.66853 h 41.51243 c 1.98908,0 3.59068,1.63633 3.59068,3.66853 z"
         inkscape:connector-curvature="0" />
    </g>
  </g>
</svg>
