<?xml version="1.0" encoding="UTF-8" standalone="no"?>
<svg
   xmlns:i="http://ns.adobe.com/AdobeIllustrator/10.0/"
   xmlns:dc="http://purl.org/dc/elements/1.1/"
   xmlns:cc="http://creativecommons.org/ns#"
   xmlns:rdf="http://www.w3.org/1999/02/22-rdf-syntax-ns#"
   xmlns:svg="http://www.w3.org/2000/svg"
   xmlns="http://www.w3.org/2000/svg"
   xmlns:sodipodi="http://sodipodi.sourceforge.net/DTD/sodipodi-0.dtd"
   xmlns:inkscape="http://www.inkscape.org/namespaces/inkscape"
   width="1920"
   height="1080"
   viewBox="0 0 507.99979 285.75001"
   version="1.1"
   id="svg8"
   inkscape:version="1.0.2 (e86c870879, 2021-01-15)"
   sodipodi:docname="wallpaper.svg">
  <defs
     id="defs2">
		
	
			
			
			
			
			
			
			
			
			
			
			
			
			
			
			
			
			
			
			
		</defs>
  <sodipodi:namedview
     id="base"
     pagecolor="#ffffff"
     bordercolor="#666666"
     borderopacity="1.0"
     inkscape:pageopacity="0.0"
     inkscape:pageshadow="2"
     inkscape:zoom="0.5"
     inkscape:cx="926.80405"
     inkscape:cy="424.27392"
     inkscape:document-units="mm"
     inkscape:current-layer="layer1"
     inkscape:document-rotation="0"
     showgrid="false"
     width="211mm"
     units="px"
     fit-margin-top="0"
     fit-margin-left="0"
     fit-margin-right="0"
     fit-margin-bottom="0"
     inkscape:window-width="1916"
     inkscape:window-height="1046"
     inkscape:window-x="0"
     inkscape:window-y="30"
     inkscape:window-maximized="0" />
  <metadata
     id="metadata5">
    <rdf:RDF>
      <cc:Work
         rdf:about="">
        <dc:format>image/svg+xml</dc:format>
        <dc:type
           rdf:resource="http://purl.org/dc/dcmitype/StillImage" />
        <dc:title></dc:title>
      </cc:Work>
    </rdf:RDF>
  </metadata>
  <g
     inkscape:label="Layer 1"
     inkscape:groupmode="layer"
     id="layer1"
     transform="translate(130.5968,78.387039)">
    <rect
       style="fill:#282c34;fill-opacity:1;stroke:none;stroke-width:38.6522;stroke-linejoin:round"
       id="rect1407"
       width="508"
       height="285.75"
       x="-130.5968"
       y="-78.387039"
       sodipodi:insensitive="true" />
    <g
       id="g1638">
      <path
         i:knockout="Off"
         fill="#a80030"
         d="m 127.12605,50.691948 c -0.844,0.0113 0.15874,0.433862 1.26091,0.603904 0.30562,-0.238398 0.58018,-0.477926 0.82648,-0.711804 -0.68525,0.167782 -1.3835,0.171737 -2.08739,0.1079"
         id="path1496"
         style="stroke-width:0.564924;fill:#ebcb8b;fill-opacity:1" />
      <path
         i:knockout="Off"
         fill="#a80030"
         d="m 131.65505,49.562665 c 0.50447,-0.694292 0.87054,-1.45355 0.99991,-2.238795 -0.11355,0.559275 -0.41578,1.042285 -0.70276,1.552977 -1.57784,0.993701 -0.14914,-0.589781 -0.001,-1.192555 -1.69591,2.137108 -0.23388,1.281248 -0.29602,1.878373"
         id="path1498"
         style="stroke-width:0.564924;fill:#ebcb8b;fill-opacity:1" />
      <path
         i:knockout="Off"
         fill="#a80030"
         d="m 133.32892,45.210489 c 0.10281,-1.520211 -0.29885,-1.038896 -0.43387,-0.459848 0.15705,0.08248 0.2819,1.072226 0.43387,0.459848"
         id="path1500"
         style="stroke-width:0.564924;fill:#ebcb8b;fill-opacity:1" />
      <path
         i:knockout="Off"
         fill="#a80030"
         d="m 123.92406,24.433143 c 0.45081,0.08022 0.97393,0.142361 0.89879,0.250261 0.49488,-0.10903 0.60617,-0.207327 -0.89879,-0.250261"
         id="path1502"
         style="stroke-width:0.564924;fill:#ebcb8b;fill-opacity:1" />
      <path
         i:knockout="Off"
         fill="#a80030"
         d="m 124.82342,24.683404 -0.31692,0.0661 0.29545,-0.02712 0.0215,-0.03898"
         id="path1504"
         style="stroke-width:0.564924;fill:#ebcb8b;fill-opacity:1" />
      <path
         i:knockout="Off"
         fill="#a80030"
         d="m 138.87252,45.786712 c 0.0508,1.364856 -0.39827,2.028077 -0.80446,3.20086 l -0.73044,0.363246 c -0.59713,1.160354 0.0593,0.736661 -0.36833,1.659182 -0.93326,0.828744 -2.82801,2.592437 -3.43474,2.754006 -0.44347,-0.0096 0.29997,-0.52312 0.39714,-0.723668 -1.24792,0.856425 -1.00161,1.285767 -2.91049,1.807192 l -0.0554,-0.124848 c -4.70582,2.214503 -11.24312,-2.173263 -11.15725,-8.1592 -0.0497,0.379629 -0.14293,0.284722 -0.24688,0.437252 -0.24291,-3.079402 1.42248,-6.172362 4.23129,-7.437227 2.74722,-1.359208 5.96786,-0.802192 7.93436,1.033246 -1.08014,-1.4157 -3.23194,-2.916703 -5.78031,-2.777732 -2.49753,0.04068 -4.83462,1.627547 -5.61421,3.35113 -1.27899,0.805017 -1.42813,3.104823 -1.98515,3.526257 -0.75078,5.51366 1.41062,7.894815 5.06737,10.697404 0.57396,0.387538 0.16157,0.446855 0.2384,0.741745 -1.21459,-0.568313 -2.32636,-1.426998 -3.24154,-2.478322 0.48584,0.71011 1.00952,1.400447 1.68687,1.942774 -1.14623,-0.386973 -2.67661,-2.775472 -3.12234,-2.872639 1.97441,3.535295 8.0095,6.200043 11.17138,4.877555 -1.46316,0.05423 -3.32119,0.02994 -4.96399,-0.577352 -0.69203,-0.355338 -1.62924,-1.090304 -1.46146,-1.227581 4.31376,1.610599 8.76875,1.219107 12.50064,-1.772167 0.95021,-0.74005 1.98741,-1.998136 2.28738,-2.015084 -0.45137,0.679039 0.0774,0.326526 -0.26947,0.925911 0.94455,-1.525861 -0.41183,-0.621417 0.97732,-2.634807 L 139.7312,51.01 c -0.19207,-1.267689 1.57332,-2.805413 1.39367,-4.808634 0.40505,-0.612378 0.45137,0.659831 0.022,2.068752 0.596,-1.563145 0.15762,-1.814536 0.31015,-3.104823 0.16439,0.433862 0.38301,0.894275 0.4943,1.352428 -0.38866,-1.511172 0.39715,-2.543853 0.59261,-3.42231 -0.1932,-0.08474 -0.59939,0.66774 -0.69316,-1.11629 0.0141,-0.775076 0.21636,-0.406181 0.29376,-0.597125 -0.1514,-0.08756 -0.5508,-0.681864 -0.79316,-1.821316 0.17457,-0.268339 0.47002,0.694292 0.70955,0.733272 -0.15423,-0.905574 -0.41917,-1.596476 -0.43047,-2.291898 -0.70051,-1.463153 -0.248,0.195464 -0.81519,-0.628195 -0.7457,-2.324098 0.61803,-0.539503 0.71068,-1.594781 1.12871,1.635455 1.77216,4.171965 2.06875,5.222159 -0.22597,-1.280683 -0.59035,-2.521822 -1.03607,-3.722285 0.34404,0.145185 -0.55306,-2.634242 0.44685,-0.793719 -1.06714,-3.923398 -4.56346,-7.589756 -7.7807,-9.309385 0.39262,0.359856 0.88919,0.811796 0.71181,0.882976 -1.601,-0.951897 -1.31967,-1.027032 -1.54903,-1.429258 -1.30215,-0.530464 -1.38914,0.0435 -2.25065,0.0011 -2.45742,-1.303845 -2.93083,-1.165439 -5.19222,-1.981189 l 0.10281,0.481315 c -1.62754,-0.542327 -1.89645,0.204503 -3.65506,0.0011 -0.10677,-0.08304 0.5638,-0.302799 1.1163,-0.382454 -1.57388,0.207892 -1.50044,-0.310708 -3.04043,0.05706 0.37907,-0.26608 0.78129,-0.442901 1.18578,-0.668871 -1.28294,0.07796 -3.06415,0.74683 -2.51448,0.137842 -2.09304,0.934385 -5.81081,2.245574 -7.89707,4.201906 l -0.0655,-0.438381 c -0.95586,1.147361 -4.16858,3.42683 -4.42449,4.914275 l -0.25591,0.05932 c -0.49657,0.842302 -0.81914,1.796459 -1.21346,2.662488 -0.65023,1.108946 -0.95359,0.427082 -0.86094,0.601079 -1.27956,2.594132 -1.91623,4.773609 -2.46477,6.562159 0.39093,0.584697 0.01,3.520608 0.15705,5.870127 -0.64175,11.605802 8.14508,22.873215 17.74992,25.474126 1.40779,0.504477 3.50083,0.4864 5.28148,0.536113 -2.10039,-0.601079 -2.37156,-0.318052 -4.41884,-1.031552 -1.47615,-0.695986 -1.79929,-1.489705 -2.84552,-2.397538 l 0.41408,0.731577 c -2.05067,-0.725928 -1.19255,-0.898229 -2.86134,-1.426433 l 0.44234,-0.576788 c -0.66492,-0.05084 -1.76087,-1.11968 -2.06028,-1.713415 l -0.72762,0.02881 c -0.87337,-1.076745 -1.33944,-1.854646 -1.30498,-2.45742 l -0.235,0.419174 c -0.26608,-0.457024 -3.21499,-4.043728 -1.68517,-3.20877 -0.28416,-0.258735 -0.66209,-0.421998 -1.07166,-1.167133 l 0.31127,-0.355337 c -0.73497,-0.947378 -1.35469,-2.1614 -1.30724,-2.565886 0.39263,0.529899 0.66492,0.629326 0.93495,0.720278 -1.85916,-4.61204 -1.96367,-0.25365 -3.3709,-4.694519 l 0.29715,-0.02373 c -0.22766,-0.345169 -0.3672,-0.717454 -0.55023,-1.08409 l 0.12993,-1.290851 c -1.33774,-1.545633 -0.37398,-6.578542 -0.18021,-9.338197 0.13275,-1.121939 1.11685,-2.316754 1.86425,-4.190607 l -0.45533,-0.07796 c 0.87111,-1.518516 4.97246,-6.100616 6.87287,-5.865608 0.92026,-1.155834 -0.18304,-0.0045 -0.36325,-0.29489 2.02186,-2.091914 2.6574,-1.477842 4.02169,-1.854646 1.4705,-0.872808 -1.2626,0.341214 -0.56548,-0.33274 2.54385,-0.649098 1.8021,-1.476712 5.1199,-1.806063 0.35026,0.198853 -0.81179,0.307319 -1.10329,0.565489 2.11846,-1.037201 6.70508,-0.800497 9.68562,0.575093 3.45564,1.616248 7.34063,6.391552 7.49428,10.884394 l 0.17457,0.04689 c -0.0881,1.78629 0.27342,3.852218 -0.35421,5.749233 l 0.42426,-0.898794"
         id="path1506"
         style="stroke-width:0.564924;fill:#ebcb8b;fill-opacity:1" />
      <path
         i:knockout="Off"
         fill="#a80030"
         d="m 117.91157,51.850043 -0.1192,0.591475 c 0.55532,0.754174 0.99596,1.571054 1.70381,2.158575 -0.50956,-0.993701 -0.88749,-1.404401 -1.58461,-2.75005"
         id="path1508"
         style="stroke-width:0.564924;fill:#ebcb8b;fill-opacity:1" />
      <path
         i:knockout="Off"
         fill="#a80030"
         d="m 119.22276,51.799199 c -0.29376,-0.325396 -0.46663,-0.716323 -0.66209,-1.104991 0.18642,0.684123 0.56831,1.272209 0.92252,1.871029 l -0.26043,-0.766038"
         id="path1510"
         style="stroke-width:0.564924;fill:#ebcb8b;fill-opacity:1" />
      <path
         i:knockout="Off"
         fill="#a80030"
         d="m 142.4321,46.754427 -0.12371,0.311838 c -0.2271,1.614553 -0.71915,3.212159 -1.47163,4.693955 0.83157,-1.563145 1.36768,-3.273171 1.59534,-5.005793"
         id="path1512"
         style="stroke-width:0.564924;fill:#ebcb8b;fill-opacity:1" />
      <path
         i:knockout="Off"
         fill="#a80030"
         d="m 124.09184,24.028092 c 0.57001,-0.208457 1.40214,-0.114679 2.00887,-0.251956 -0.78976,0.0661 -1.57557,0.105641 -2.35121,0.204503 l 0.34234,0.04745"
         id="path1514"
         style="stroke-width:0.564924;fill:#ebcb8b;fill-opacity:1" />
      <path
         i:knockout="Off"
         fill="#a80030"
         d="m 104.05342,34.683692 c 0.13162,1.216847 -0.91518,1.689688 0.23161,0.886366 0.61577,-1.386324 -0.23952,-0.382454 -0.23161,-0.886366"
         id="path1516"
         style="stroke-width:0.564924;fill:#ebcb8b;fill-opacity:1" />
      <path
         i:knockout="Off"
         fill="#a80030"
         d="m 102.70438,40.318246 c 0.26495,-0.811796 0.3124,-1.298761 0.41352,-1.769343 -0.73045,0.934385 -0.33669,1.133803 -0.41352,1.769343"
         id="path1518"
         style="stroke-width:0.564924;fill:#ebcb8b;fill-opacity:1" />
    </g>
    <path
       i:knockout="Off"
       d="m 100.27407,94.677509 c -0.0254,0.02655 -0.0254,4.240321 -0.078,5.340231 -0.052,0.88919 -0.13106,2.80033 -2.015646,2.80033 -1.937125,0 -2.408272,-2.22524 -2.565321,-3.192955 -0.183035,-1.073356 -0.183035,-1.964242 -0.183035,-2.355734 0,-1.256956 0.07852,-4.7657 3.036467,-4.7657 0.890321,0 1.387454,0.262689 1.780075,0.471146 z m -7.590883,3.08957 c 0,7.381301 3.926788,7.381301 4.502446,7.381301 1.623027,0 2.670396,-0.89032 3.114987,-2.43426 l 0.0525,2.32918 c 0.4977,-0.0266 0.99483,-0.0785 1.80607,-0.0785 0.28811,0 0.52311,0 0.73327,0.0266 0.20958,0 0.41861,0.0254 0.65418,0.052 -0.41861,-0.83722 -0.73271,-2.7218 -0.73271,-6.806769 0,-3.978761 0,-10.705878 0.34009,-12.748079 -0.94173,0.445726 -1.75409,0.733837 -3.534169,0.890321 0.706719,0.759258 0.706719,1.15188 0.706719,4.606392 -0.496567,-0.156484 -1.125328,-0.340085 -2.198684,-0.340085 -4.685481,5.65e-4 -5.444739,4.084402 -5.444739,7.121999"
       id="path1520"
       style="stroke-width:0.564924;fill:#eceff4;fill-opacity:1" />
    <path
       i:knockout="Off"
       d="m 106.87973,96.430469 c 0.0266,-2.172699 0.47171,-4.109824 2.32975,-4.109824 2.0422,0 2.19812,2.250658 2.14615,4.109824 z m 7.0672,0.262689 c 0,-3.063019 -0.60164,-6.074064 -4.47589,-6.074064 -5.33966,0 -5.33966,5.91758 -5.33966,7.172842 0,5.313674 2.38172,7.407854 6.38703,7.407854 1.77894,0 2.64384,-0.26043 3.11499,-0.39263 -0.026,-0.94229 0.10451,-1.5445 0.26269,-2.35573 -0.5508,0.34121 -1.25752,0.78581 -2.82801,0.78581 -4.08384,0 -4.13638,-3.718331 -4.13638,-5.000709 h 6.96439 l 0.0508,-1.543373"
       id="path1522"
       style="stroke-width:0.564924;fill:#eceff4;fill-opacity:1" />
    <path
       i:knockout="Off"
       d="m 122.46316,97.818487 c 0,2.434263 -0.44459,5.706863 -3.48106,5.706863 -0.41917,0 -0.94229,-0.0797 -1.28238,-0.15761 -0.0525,-0.9423 -0.0525,-2.56532 -0.0525,-4.44991 0,-2.251788 0.235,-3.42796 0.41917,-4.005313 0.54911,-1.858035 1.77951,-1.883457 2.01452,-1.883457 1.98966,0 2.38228,2.748356 2.38228,4.789427 z m -7.51236,2.853433 c 0,1.93769 0,3.03647 -0.31409,3.87368 1.07335,0.41918 2.4077,0.65419 4.00531,0.65419 1.02082,0 3.97876,0 5.57523,-3.27148 0.75926,-1.51852 1.02082,-3.560716 1.02082,-5.105219 0,-0.942294 -0.10507,-3.009916 -0.86377,-4.31941 -0.73214,-1.229275 -1.91057,-1.858036 -3.1664,-1.858036 -2.51334,0 -3.24605,2.094174 -3.63811,3.16753 0,-1.334916 0.0254,-5.99441 0.23444,-8.376696 -1.70098,0.78581 -2.74892,0.915742 -3.87368,1.020818 1.02082,0.418044 1.02082,2.147277 1.02082,7.775617 v 6.439006"
       id="path1524"
       style="stroke-width:0.564924;fill:#eceff4;fill-opacity:1" />
    <path
       i:knockout="Off"
       d="m 130.27042,105.0433 c -0.52425,-0.0785 -0.89145,-0.13106 -1.65071,-0.13106 -0.83609,0 -1.41344,0.0531 -2.01452,0.13106 0.26156,-0.4977 0.36607,-0.73383 0.44459,-2.43426 0.10508,-2.33031 0.13107,-8.560857 -0.052,-9.869786 -0.13106,-0.995396 -0.36607,-1.15188 -0.73271,-1.41344 2.14615,-0.209587 2.74836,-0.366071 3.74263,-0.837218 -0.20846,1.150751 -0.23614,1.728103 -0.23614,3.481063 -0.0514,9.032571 -0.078,10.000291 0.49883,11.073641"
       id="path1526"
       style="stroke-width:0.564924;fill:#eceff4;fill-opacity:1" />
    <path
       i:knockout="Off"
       d="m 138.65276,97.634322 c -0.052,1.649579 -0.0785,2.801458 -0.52425,3.717198 -0.54967,1.17843 -1.46541,1.51852 -2.14615,1.51852 -1.57218,0 -1.91113,-1.30837 -1.91113,-2.59074 0,-2.460248 2.19925,-2.644978 3.19295,-2.644978 z m -7.19939,3.220628 c 0,1.64958 0.4977,3.29803 1.96424,4.00532 0.65418,0.28811 1.30836,0.28811 1.51852,0.28811 2.40883,0 3.2195,-1.78064 3.7172,-2.87999 -0.0266,1.15189 0,1.85804 0.0785,2.77491 0.47115,-0.0266 0.94229,-0.0785 1.7281,-0.0785 0.4446,0 0.86377,0.052 1.30837,0.0785 -0.28811,-0.44459 -0.4446,-0.70728 -0.52425,-1.7281 -0.052,-0.99427 -0.052,-1.9891 -0.052,-3.376552 l 0.0265,-5.340229 c 0,-1.990227 -0.52425,-3.953339 -4.45104,-3.953339 -2.59074,0 -4.10869,0.78581 -4.86795,1.178432 0.31466,0.576223 0.57622,1.072226 0.81123,2.19925 1.02195,-0.890321 2.35686,-1.361467 3.7172,-1.361467 2.17383,0 2.17383,1.439991 2.17383,3.481062 -0.4977,-0.02542 -0.91687,-0.07739 -1.62416,-0.07739 -3.32571,5.65e-4 -5.52439,1.281248 -5.52439,4.789983"
       id="path1528"
       style="stroke-width:0.564924;fill:#eceff4;fill-opacity:1" />
    <path
       i:knockout="Off"
       d="m 153.73059,102.452 c 0.0265,0.89032 0.0265,1.83261 0.39262,2.59187 -0.57679,-0.052 -0.91687,-0.13107 -1.9891,-0.13107 -0.62876,0 -0.96884,0.0531 -1.46654,0.13107 0.10394,-0.34009 0.15761,-0.47115 0.20959,-0.91687 0.0785,-0.60108 0.13106,-2.6173 0.13106,-3.32458 v -2.826884 c 0,-1.230405 0,-3.011046 -0.0797,-3.638676 -0.052,-0.444596 -0.1819,-1.648449 -1.70155,-1.648449 -1.49196,0 -1.9891,1.098777 -2.1727,1.989098 -0.20845,0.915742 -0.20845,1.911138 -0.20845,5.784821 0.0254,3.35113 0.0254,3.6641 0.28698,4.58097 -0.4446,-0.052 -0.99427,-0.10394 -1.77951,-0.10394 -0.62876,0 -1.04737,0.0254 -1.56993,0.10394 0.18304,-0.41917 0.28811,-0.62876 0.34009,-2.09417 0.0531,-1.43999 0.15761,-8.508324 -0.0797,-10.18276 -0.12993,-1.021947 -0.39262,-1.256956 -0.6796,-1.518516 2.12072,-0.105076 2.80033,-0.445725 3.45564,-0.784679 v 2.773777 c 0.31353,-0.812361 0.96772,-2.618423 3.58614,-2.618423 3.2726,0 3.29803,2.382285 3.32458,3.952209 V 102.452"
       id="path1530"
       style="stroke-width:0.564924;fill:#eceff4;fill-opacity:1" />
    <path
       i:knockout="Off"
       fill="#a80030"
       d="m 130.4913,86.783823 -2.16818,2.16705 -2.16705,-2.16705 2.16705,-2.167049 2.16818,2.167049"
       id="path1532"
       style="stroke-width:0.564924;fill:#ebcb8b;fill-opacity:1" />
  </g>
</svg>
